<?xml version="1.0" encoding="UTF-8"?>
<!DOCTYPE svg
PUBLIC "-//W3C//DTD SVG 1.1//EN"
       "http://www.w3.org/Graphics/SVG/1.1/DTD/svg11.dtd">
<svg viewBox="34 -8 1054 733" width="1020px" height="741px" xmlns="http://www.w3.org/2000/svg" version="1.1">
   <line x1="461" y1="225" x2="471" y2="225" style="stroke:#333;stroke-width:1;"/>
   <line x1="542" y1="54" x2="552" y2="54" style="stroke:#333;stroke-width:1;"/>
   <line x1="471" y1="225" x2="542" y2="54" style="stroke:#333;stroke-width:1;"/>
   <line x1="468.5" y1="225" x2="464.96446609407" y2="228.53553390593" style="stroke:#333;stroke-width:2;"/>
   <line x1="468.5" y1="225" x2="464.96446609407" y2="221.46446609407" style="stroke:#333;stroke-width:2;"/>
   <line x1="547" y1="54" x2="543.46446609407" y2="57.535533905933" style="stroke:#333;stroke-width:2;"/>
   <line x1="547" y1="54" x2="543.46446609407" y2="50.464466094067" style="stroke:#333;stroke-width:2;"/>
   <line x1="552" y1="134" x2="542" y2="134" style="stroke:#0b0;stroke-width:1;"/>
   <line x1="415" y1="56" x2="405" y2="56" style="stroke:#0b0;stroke-width:1;"/>
   <line x1="542" y1="134" x2="415" y2="56" style="stroke:#0b0;stroke-width:1;"/>
   <line x1="544.5" y1="134" x2="548.03553390593" y2="137.53553390593" style="stroke:#0b0;stroke-width:2;"/>
   <line x1="544.5" y1="134" x2="548.03553390593" y2="130.46446609407" style="stroke:#0b0;stroke-width:2;"/>
   <line x1="410" y1="56" x2="413.53553390593" y2="59.535533905933" style="stroke:#0b0;stroke-width:2;"/>
   <line x1="410" y1="56" x2="413.53553390593" y2="52.464466094067" style="stroke:#0b0;stroke-width:2;"/>
   <line x1="634" y1="321" x2="624" y2="321" style="stroke:#bbb;stroke-width:1;"/>
   <line x1="527" y1="367" x2="517" y2="367" style="stroke:#bbb;stroke-width:1;"/>
   <line x1="624" y1="321" x2="527" y2="367" style="stroke:#bbb;stroke-width:1;"/>
   <line x1="626.5" y1="321" x2="630.03553390593" y2="324.53553390593" style="stroke:#bbb;stroke-width:2;"/>
   <line x1="626.5" y1="321" x2="630.03553390593" y2="317.46446609407" style="stroke:#bbb;stroke-width:2;"/>
   <line x1="522" y1="367" x2="525.53553390593" y2="370.53553390593" style="stroke:#bbb;stroke-width:2;"/>
   <line x1="522" y1="367" x2="525.53553390593" y2="363.46446609407" style="stroke:#bbb;stroke-width:2;"/>
   <line x1="634" y1="341" x2="624" y2="341" style="stroke:#c00;stroke-width:1;"/>
   <line x1="471" y1="205" x2="461" y2="205" style="stroke:#c00;stroke-width:1;"/>
   <line x1="624" y1="341" x2="471" y2="205" style="stroke:#c00;stroke-width:1;"/>
   <line x1="626.5" y1="341" x2="630.03553390593" y2="344.53553390593" style="stroke:#c00;stroke-width:2;"/>
   <line x1="626.5" y1="341" x2="630.03553390593" y2="337.46446609407" style="stroke:#c00;stroke-width:2;"/>
   <line x1="466" y1="205" x2="469.53553390593" y2="208.53553390593" style="stroke:#c00;stroke-width:2;"/>
   <line x1="466" y1="205" x2="469.53553390593" y2="201.46446609407" style="stroke:#c00;stroke-width:2;"/>
   <line x1="634" y1="381" x2="624" y2="381" style="stroke:#cb0;stroke-width:1;"/>
   <line x1="616" y1="556" x2="626" y2="556" style="stroke:#cb0;stroke-width:1;"/>
   <line x1="624" y1="381" x2="616" y2="556" style="stroke:#cb0;stroke-width:1;"/>
   <line x1="626.5" y1="381" x2="630.03553390593" y2="384.53553390593" style="stroke:#cb0;stroke-width:2;"/>
   <line x1="626.5" y1="381" x2="630.03553390593" y2="377.46446609407" style="stroke:#cb0;stroke-width:2;"/>
   <line x1="621" y1="556" x2="617.46446609407" y2="559.53553390593" style="stroke:#cb0;stroke-width:2;"/>
   <line x1="621" y1="556" x2="617.46446609407" y2="552.46446609407" style="stroke:#cb0;stroke-width:2;"/>
   <line x1="178" y1="79" x2="188" y2="79" style="stroke:#cb0;stroke-width:1;"/>
   <line x1="351" y1="367" x2="361" y2="367" style="stroke:#cb0;stroke-width:1;"/>
   <line x1="188" y1="79" x2="351" y2="367" style="stroke:#cb0;stroke-width:1;"/>
   <line x1="185.5" y1="79" x2="181.96446609407" y2="82.535533905933" style="stroke:#cb0;stroke-width:2;"/>
   <line x1="185.5" y1="79" x2="181.96446609407" y2="75.464466094067" style="stroke:#cb0;stroke-width:2;"/>
   <line x1="356" y1="367" x2="352.46446609407" y2="370.53553390593" style="stroke:#cb0;stroke-width:2;"/>
   <line x1="356" y1="367" x2="352.46446609407" y2="363.46446609407" style="stroke:#cb0;stroke-width:2;"/>
   <line x1="54" y1="99" x2="44" y2="99" style="stroke:#b0b;stroke-width:1;"/>
   <line x1="39" y1="215" x2="49" y2="215" style="stroke:#b0b;stroke-width:1;"/>
   <line x1="44" y1="99" x2="39" y2="215" style="stroke:#b0b;stroke-width:1;"/>
   <line x1="46.5" y1="99" x2="50.035533905933" y2="102.53553390593" style="stroke:#b0b;stroke-width:2;"/>
   <line x1="46.5" y1="99" x2="50.035533905933" y2="95.464466094067" style="stroke:#b0b;stroke-width:2;"/>
   <line x1="44" y1="215" x2="40.464466094067" y2="218.53553390593" style="stroke:#b0b;stroke-width:2;"/>
   <line x1="44" y1="215" x2="40.464466094067" y2="211.46446609407" style="stroke:#b0b;stroke-width:2;"/>
   <line x1="160" y1="678" x2="170" y2="678" style="stroke:#0b0;stroke-width:1;"/>
   <line x1="174" y1="422" x2="164" y2="422" style="stroke:#0b0;stroke-width:1;"/>
   <line x1="170" y1="678" x2="174" y2="422" style="stroke:#0b0;stroke-width:1;"/>
   <line x1="167.5" y1="678" x2="163.96446609407" y2="681.53553390593" style="stroke:#0b0;stroke-width:2;"/>
   <line x1="167.5" y1="678" x2="163.96446609407" y2="674.46446609407" style="stroke:#0b0;stroke-width:2;"/>
   <line x1="169" y1="422" x2="172.53553390593" y2="425.53553390593" style="stroke:#0b0;stroke-width:2;"/>
   <line x1="169" y1="422" x2="172.53553390593" y2="418.46446609407" style="stroke:#0b0;stroke-width:2;"/>
   <line x1="160" y1="678" x2="170" y2="678" style="stroke:#0b0;stroke-width:1;"/>
   <line x1="174" y1="422" x2="164" y2="422" style="stroke:#0b0;stroke-width:1;"/>
   <line x1="170" y1="678" x2="174" y2="422" style="stroke:#0b0;stroke-width:1;"/>
   <line x1="167.5" y1="678" x2="163.96446609407" y2="681.53553390593" style="stroke:#0b0;stroke-width:2;"/>
   <line x1="167.5" y1="678" x2="163.96446609407" y2="674.46446609407" style="stroke:#0b0;stroke-width:2;"/>
   <line x1="169" y1="422" x2="172.53553390593" y2="425.53553390593" style="stroke:#0b0;stroke-width:2;"/>
   <line x1="169" y1="422" x2="172.53553390593" y2="418.46446609407" style="stroke:#0b0;stroke-width:2;"/>
   <line x1="160" y1="678" x2="170" y2="678" style="stroke:#333;stroke-width:1;"/>
   <line x1="174" y1="422" x2="164" y2="422" style="stroke:#333;stroke-width:1;"/>
   <line x1="170" y1="678" x2="174" y2="422" style="stroke:#333;stroke-width:1;"/>
   <line x1="167.5" y1="678" x2="163.96446609407" y2="681.53553390593" style="stroke:#333;stroke-width:2;"/>
   <line x1="167.5" y1="678" x2="163.96446609407" y2="674.46446609407" style="stroke:#333;stroke-width:2;"/>
   <line x1="169" y1="422" x2="172.53553390593" y2="425.53553390593" style="stroke:#333;stroke-width:2;"/>
   <line x1="169" y1="422" x2="172.53553390593" y2="418.46446609407" style="stroke:#333;stroke-width:2;"/>
   <line x1="160" y1="678" x2="170" y2="678" style="stroke:#333;stroke-width:1;"/>
   <line x1="174" y1="422" x2="164" y2="422" style="stroke:#333;stroke-width:1;"/>
   <line x1="170" y1="678" x2="174" y2="422" style="stroke:#333;stroke-width:1;"/>
   <line x1="167.5" y1="678" x2="163.96446609407" y2="681.53553390593" style="stroke:#333;stroke-width:2;"/>
   <line x1="167.5" y1="678" x2="163.96446609407" y2="674.46446609407" style="stroke:#333;stroke-width:2;"/>
   <line x1="169" y1="422" x2="172.53553390593" y2="425.53553390593" style="stroke:#333;stroke-width:2;"/>
   <line x1="169" y1="422" x2="172.53553390593" y2="418.46446609407" style="stroke:#333;stroke-width:2;"/>
   <line x1="160" y1="678" x2="170" y2="678" style="stroke:#cb0;stroke-width:1;"/>
   <line x1="174" y1="422" x2="164" y2="422" style="stroke:#cb0;stroke-width:1;"/>
   <line x1="170" y1="678" x2="174" y2="422" style="stroke:#cb0;stroke-width:1;"/>
   <line x1="167.5" y1="678" x2="163.96446609407" y2="681.53553390593" style="stroke:#cb0;stroke-width:2;"/>
   <line x1="167.5" y1="678" x2="163.96446609407" y2="674.46446609407" style="stroke:#cb0;stroke-width:2;"/>
   <line x1="169" y1="422" x2="172.53553390593" y2="425.53553390593" style="stroke:#cb0;stroke-width:2;"/>
   <line x1="169" y1="422" x2="172.53553390593" y2="418.46446609407" style="stroke:#cb0;stroke-width:2;"/>
   <line x1="160" y1="678" x2="170" y2="678" style="stroke:#0b0;stroke-width:1;"/>
   <line x1="174" y1="422" x2="164" y2="422" style="stroke:#0b0;stroke-width:1;"/>
   <line x1="170" y1="678" x2="174" y2="422" style="stroke:#0b0;stroke-width:1;"/>
   <line x1="167.5" y1="678" x2="163.96446609407" y2="681.53553390593" style="stroke:#0b0;stroke-width:2;"/>
   <line x1="167.5" y1="678" x2="163.96446609407" y2="674.46446609407" style="stroke:#0b0;stroke-width:2;"/>
   <line x1="169" y1="422" x2="172.53553390593" y2="425.53553390593" style="stroke:#0b0;stroke-width:2;"/>
   <line x1="169" y1="422" x2="172.53553390593" y2="418.46446609407" style="stroke:#0b0;stroke-width:2;"/>
   <line x1="160" y1="678" x2="170" y2="678" style="stroke:#c00;stroke-width:1;"/>
   <line x1="174" y1="422" x2="164" y2="422" style="stroke:#c00;stroke-width:1;"/>
   <line x1="170" y1="678" x2="174" y2="422" style="stroke:#c00;stroke-width:1;"/>
   <line x1="167.5" y1="678" x2="163.96446609407" y2="681.53553390593" style="stroke:#c00;stroke-width:2;"/>
   <line x1="167.5" y1="678" x2="163.96446609407" y2="674.46446609407" style="stroke:#c00;stroke-width:2;"/>
   <line x1="169" y1="422" x2="172.53553390593" y2="425.53553390593" style="stroke:#c00;stroke-width:2;"/>
   <line x1="169" y1="422" x2="172.53553390593" y2="418.46446609407" style="stroke:#c00;stroke-width:2;"/>
   <line x1="160" y1="678" x2="170" y2="678" style="stroke:#0b0;stroke-width:1;"/>
   <line x1="174" y1="422" x2="164" y2="422" style="stroke:#0b0;stroke-width:1;"/>
   <line x1="170" y1="678" x2="174" y2="422" style="stroke:#0b0;stroke-width:1;"/>
   <line x1="167.5" y1="678" x2="163.96446609407" y2="681.53553390593" style="stroke:#0b0;stroke-width:2;"/>
   <line x1="167.5" y1="678" x2="163.96446609407" y2="674.46446609407" style="stroke:#0b0;stroke-width:2;"/>
   <line x1="169" y1="422" x2="172.53553390593" y2="425.53553390593" style="stroke:#0b0;stroke-width:2;"/>
   <line x1="169" y1="422" x2="172.53553390593" y2="418.46446609407" style="stroke:#0b0;stroke-width:2;"/>
   <line x1="160" y1="678" x2="170" y2="678" style="stroke:#0b0;stroke-width:1;"/>
   <line x1="174" y1="422" x2="164" y2="422" style="stroke:#0b0;stroke-width:1;"/>
   <line x1="170" y1="678" x2="174" y2="422" style="stroke:#0b0;stroke-width:1;"/>
   <line x1="167.5" y1="678" x2="163.96446609407" y2="681.53553390593" style="stroke:#0b0;stroke-width:2;"/>
   <line x1="167.5" y1="678" x2="163.96446609407" y2="674.46446609407" style="stroke:#0b0;stroke-width:2;"/>
   <line x1="169" y1="422" x2="172.53553390593" y2="425.53553390593" style="stroke:#0b0;stroke-width:2;"/>
   <line x1="169" y1="422" x2="172.53553390593" y2="418.46446609407" style="stroke:#0b0;stroke-width:2;"/>
   <line x1="314" y1="668" x2="304" y2="668" style="stroke:#333;stroke-width:1;"/>
   <line x1="170" y1="538" x2="160" y2="538" style="stroke:#333;stroke-width:1;"/>
   <line x1="304" y1="668" x2="170" y2="538" style="stroke:#333;stroke-width:1;"/>
   <line x1="306.5" y1="668" x2="310.03553390593" y2="671.53553390593" style="stroke:#333;stroke-width:2;"/>
   <line x1="306.5" y1="668" x2="310.03553390593" y2="664.46446609407" style="stroke:#333;stroke-width:2;"/>
   <line x1="165" y1="538" x2="168.53553390593" y2="541.53553390593" style="stroke:#333;stroke-width:2;"/>
   <line x1="165" y1="538" x2="168.53553390593" y2="534.46446609407" style="stroke:#333;stroke-width:2;"/>
   <line x1="314" y1="688" x2="304" y2="688" style="stroke:#cb0;stroke-width:1;"/>
   <line x1="232" y1="321" x2="222" y2="321" style="stroke:#cb0;stroke-width:1;"/>
   <line x1="304" y1="688" x2="232" y2="321" style="stroke:#cb0;stroke-width:1;"/>
   <line x1="306.5" y1="688" x2="310.03553390593" y2="691.53553390593" style="stroke:#cb0;stroke-width:2;"/>
   <line x1="306.5" y1="688" x2="310.03553390593" y2="684.46446609407" style="stroke:#cb0;stroke-width:2;"/>
   <line x1="227" y1="321" x2="230.53553390593" y2="324.53553390593" style="stroke:#cb0;stroke-width:2;"/>
   <line x1="227" y1="321" x2="230.53553390593" y2="317.46446609407" style="stroke:#cb0;stroke-width:2;"/>
   <rect width="101" height="20" x="304" y="26" style="fill:#007;stroke:black;"/>
   <text width="101" height="20" x="309" y="40" style="fill:#fff;" font-family="Arial" font-size="16px"> areas</text>
   <rect width="101" height="20" x="304" y="46" style="fill:#aea;stroke:black;"/>
   <text width="101" height="20" x="309" y="60" style="fill:black;" font-family="Arial" font-size="16px">id_area</text>
   <rect width="101" height="20" x="304" y="66" style="fill:none;stroke:black;"/>
   <text width="101" height="20" x="309" y="80" style="fill:black;" font-family="Arial" font-size="16px">nombre_area</text>
   <rect width="101" height="20" x="304" y="86" style="fill:none;stroke:black;"/>
   <text width="101" height="20" x="309" y="100" style="fill:black;" font-family="Arial" font-size="16px">descripcion</text>
   <rect width="131" height="20" x="330" y="175" style="fill:#007;stroke:black;"/>
   <text width="131" height="20" x="335" y="189" style="fill:#fff;" font-family="Arial" font-size="16px"> camas</text>
   <rect width="131" height="20" x="330" y="195" style="fill:#aea;stroke:black;"/>
   <text width="131" height="20" x="335" y="209" style="fill:black;" font-family="Arial" font-size="16px">id_cama</text>
   <rect width="131" height="20" x="330" y="215" style="fill:none;stroke:black;"/>
   <text width="131" height="20" x="335" y="229" style="fill:black;" font-family="Arial" font-size="16px">id_habitacion</text>
   <rect width="131" height="20" x="330" y="235" style="fill:none;stroke:black;"/>
   <text width="131" height="20" x="335" y="249" style="fill:black;" font-family="Arial" font-size="16px">estado</text>
   <rect width="131" height="20" x="330" y="255" style="fill:none;stroke:black;"/>
   <text width="131" height="20" x="335" y="269" style="fill:black;" font-family="Arial" font-size="16px">higiene</text>
   <rect width="131" height="20" x="330" y="275" style="fill:none;stroke:black;"/>
   <text width="131" height="20" x="335" y="289" style="fill:black;" font-family="Arial" font-size="16px">genero_ocupante</text>
   <rect width="125" height="20" x="893" y="231" style="fill:#007;stroke:black;"/>
   <text width="125" height="20" x="898" y="245" style="fill:#fff;" font-family="Arial" font-size="16px"> emergencias</text>
   <rect width="125" height="20" x="893" y="251" style="fill:#aea;stroke:black;"/>
   <text width="125" height="20" x="898" y="265" style="fill:black;" font-family="Arial" font-size="16px">id</text>
   <rect width="125" height="20" x="893" y="271" style="fill:none;stroke:black;"/>
   <text width="125" height="20" x="898" y="285" style="fill:black;" font-family="Arial" font-size="16px">codigo</text>
   <rect width="125" height="20" x="893" y="291" style="fill:none;stroke:black;"/>
   <text width="125" height="20" x="898" y="305" style="fill:black;" font-family="Arial" font-size="16px">genero</text>
   <rect width="125" height="20" x="893" y="311" style="fill:none;stroke:black;"/>
   <text width="125" height="20" x="898" y="325" style="fill:black;" font-family="Arial" font-size="16px">tipo_emergencia</text>
   <rect width="125" height="20" x="893" y="331" style="fill:none;stroke:black;"/>
   <text width="125" height="20" x="898" y="345" style="fill:black;" font-family="Arial" font-size="16px">fecha_ingreso</text>
   <rect width="159" height="20" x="63" y="291" style="fill:#007;stroke:black;"/>
   <text width="159" height="20" x="68" y="305" style="fill:#fff;" font-family="Arial" font-size="16px"> especialidad</text>
   <rect width="159" height="20" x="63" y="311" style="fill:#aea;stroke:black;"/>
   <text width="159" height="20" x="68" y="325" style="fill:black;" font-family="Arial" font-size="16px">id_especialidad</text>
   <rect width="159" height="20" x="63" y="331" style="fill:none;stroke:black;"/>
   <text width="159" height="20" x="68" y="345" style="fill:black;" font-family="Arial" font-size="16px">nombre_especialidad</text>
   <rect width="159" height="20" x="63" y="351" style="fill:none;stroke:black;"/>
   <text width="159" height="20" x="68" y="365" style="fill:black;" font-family="Arial" font-size="16px">descripcion</text>
   <rect width="143" height="20" x="552" y="24" style="fill:#007;stroke:black;"/>
   <text width="143" height="20" x="557" y="38" style="fill:#fff;" font-family="Arial" font-size="16px"> habitaciones</text>
   <rect width="143" height="20" x="552" y="44" style="fill:#aea;stroke:black;"/>
   <text width="143" height="20" x="557" y="58" style="fill:black;" font-family="Arial" font-size="16px">id_habitacion</text>
   <rect width="143" height="20" x="552" y="64" style="fill:none;stroke:black;"/>
   <text width="143" height="20" x="557" y="78" style="fill:black;" font-family="Arial" font-size="16px">numero_habitacion</text>
   <rect width="143" height="20" x="552" y="84" style="fill:none;stroke:black;"/>
   <text width="143" height="20" x="557" y="98" style="fill:black;" font-family="Arial" font-size="16px">tipo</text>
   <rect width="143" height="20" x="552" y="104" style="fill:none;stroke:black;"/>
   <text width="143" height="20" x="557" y="118" style="fill:black;" font-family="Arial" font-size="16px">estado_habitacion</text>
   <rect width="143" height="20" x="552" y="124" style="fill:none;stroke:black;"/>
   <text width="143" height="20" x="557" y="138" style="fill:black;" font-family="Arial" font-size="16px">id_area</text>
   <rect width="80" height="20" x="626" y="526" style="fill:#007;stroke:black;"/>
   <text width="80" height="20" x="631" y="540" style="fill:#fff;" font-family="Arial" font-size="16px"> ingresos</text>
   <rect width="80" height="20" x="626" y="546" style="fill:#aea;stroke:black;"/>
   <text width="80" height="20" x="631" y="560" style="fill:black;" font-family="Arial" font-size="16px">id_ingreso</text>
   <rect width="80" height="20" x="626" y="566" style="fill:none;stroke:black;"/>
   <text width="80" height="20" x="631" y="580" style="fill:black;" font-family="Arial" font-size="16px">nombre</text>
   <rect width="138" height="20" x="634" y="271" style="fill:#007;stroke:black;"/>
   <text width="138" height="20" x="639" y="285" style="fill:#fff;" font-family="Arial" font-size="16px"> internaciones</text>
   <rect width="138" height="20" x="634" y="291" style="fill:#aea;stroke:black;"/>
   <text width="138" height="20" x="639" y="305" style="fill:black;" font-family="Arial" font-size="16px">id_internacion</text>
   <rect width="138" height="20" x="634" y="311" style="fill:none;stroke:black;"/>
   <text width="138" height="20" x="639" y="325" style="fill:black;" font-family="Arial" font-size="16px">id_paciente</text>
   <rect width="138" height="20" x="634" y="331" style="fill:none;stroke:black;"/>
   <text width="138" height="20" x="639" y="345" style="fill:black;" font-family="Arial" font-size="16px">id_cama</text>
   <rect width="138" height="20" x="634" y="351" style="fill:none;stroke:black;"/>
   <text width="138" height="20" x="639" y="365" style="fill:black;" font-family="Arial" font-size="16px">fecha_ingreso</text>
   <rect width="138" height="20" x="634" y="371" style="fill:none;stroke:black;"/>
   <text width="138" height="20" x="639" y="385" style="fill:black;" font-family="Arial" font-size="16px">id_ingreso</text>
   <rect width="138" height="20" x="634" y="391" style="fill:none;stroke:black;"/>
   <text width="138" height="20" x="639" y="405" style="fill:black;" font-family="Arial" font-size="16px">medico_solicitante</text>
   <rect width="138" height="20" x="634" y="411" style="fill:none;stroke:black;"/>
   <text width="138" height="20" x="639" y="425" style="fill:black;" font-family="Arial" font-size="16px">fecha_alta</text>
   <rect width="138" height="20" x="634" y="431" style="fill:none;stroke:black;"/>
   <text width="138" height="20" x="639" y="445" style="fill:black;" font-family="Arial" font-size="16px">descripcion</text>
   <rect width="117" height="20" x="49" y="185" style="fill:#007;stroke:black;"/>
   <text width="117" height="20" x="54" y="199" style="fill:#fff;" font-family="Arial" font-size="16px"> mutuales</text>
   <rect width="117" height="20" x="49" y="205" style="fill:#aea;stroke:black;"/>
   <text width="117" height="20" x="54" y="219" style="fill:black;" font-family="Arial" font-size="16px">id_mutual</text>
   <rect width="117" height="20" x="49" y="225" style="fill:none;stroke:black;"/>
   <text width="117" height="20" x="54" y="239" style="fill:black;" font-family="Arial" font-size="16px">nombre_mutual</text>
   <rect width="124" height="20" x="54" y="29" style="fill:#007;stroke:black;"/>
   <text width="124" height="20" x="59" y="43" style="fill:#fff;" font-family="Arial" font-size="16px"> pacientemutuals</text>
   <rect width="124" height="20" x="54" y="49" style="fill:#aea;stroke:black;"/>
   <text width="124" height="20" x="59" y="63" style="fill:black;" font-family="Arial" font-size="16px">id</text>
   <rect width="124" height="20" x="54" y="69" style="fill:none;stroke:black;"/>
   <text width="124" height="20" x="59" y="83" style="fill:black;" font-family="Arial" font-size="16px">id_paciente</text>
   <rect width="124" height="20" x="54" y="89" style="fill:none;stroke:black;"/>
   <text width="124" height="20" x="59" y="103" style="fill:black;" font-family="Arial" font-size="16px">id_mutual</text>
   <rect width="124" height="20" x="54" y="109" style="fill:none;stroke:black;"/>
   <text width="124" height="20" x="59" y="123" style="fill:black;" font-family="Arial" font-size="16px">numeroAfiliado</text>
   <rect width="156" height="20" x="361" y="337" style="fill:#007;stroke:black;"/>
   <text width="156" height="20" x="366" y="351" style="fill:#fff;" font-family="Arial" font-size="16px"> pacientes</text>
   <rect width="156" height="20" x="361" y="357" style="fill:#aea;stroke:black;"/>
   <text width="156" height="20" x="366" y="371" style="fill:black;" font-family="Arial" font-size="16px">id_paciente</text>
   <rect width="156" height="20" x="361" y="377" style="fill:none;stroke:black;"/>
   <text width="156" height="20" x="366" y="391" style="fill:black;" font-family="Arial" font-size="16px">nombre</text>
   <rect width="156" height="20" x="361" y="397" style="fill:none;stroke:black;"/>
   <text width="156" height="20" x="366" y="411" style="fill:black;" font-family="Arial" font-size="16px">apellido</text>
   <rect width="156" height="20" x="361" y="417" style="fill:none;stroke:black;"/>
   <text width="156" height="20" x="366" y="431" style="fill:black;" font-family="Arial" font-size="16px">dni</text>
   <rect width="156" height="20" x="361" y="437" style="fill:none;stroke:black;"/>
   <text width="156" height="20" x="366" y="451" style="fill:black;" font-family="Arial" font-size="16px">telefono</text>
   <rect width="156" height="20" x="361" y="457" style="fill:none;stroke:black;"/>
   <text width="156" height="20" x="366" y="471" style="fill:black;" font-family="Arial" font-size="16px">telefono_emergencia</text>
   <rect width="156" height="20" x="361" y="477" style="fill:none;stroke:black;"/>
   <text width="156" height="20" x="366" y="491" style="fill:black;" font-family="Arial" font-size="16px">domicilio</text>
   <rect width="156" height="20" x="361" y="497" style="fill:none;stroke:black;"/>
   <text width="156" height="20" x="366" y="511" style="fill:black;" font-family="Arial" font-size="16px">nacionalidad</text>
   <rect width="156" height="20" x="361" y="517" style="fill:none;stroke:black;"/>
   <text width="156" height="20" x="366" y="531" style="fill:black;" font-family="Arial" font-size="16px">fecha_nacimiento</text>
   <rect width="156" height="20" x="361" y="537" style="fill:none;stroke:black;"/>
   <text width="156" height="20" x="366" y="551" style="fill:black;" font-family="Arial" font-size="16px">genero</text>
   <rect width="156" height="20" x="361" y="557" style="fill:none;stroke:black;"/>
   <text width="156" height="20" x="366" y="571" style="fill:black;" font-family="Arial" font-size="16px">grupo_sanguineo</text>
   <rect width="141" height="20" x="898" y="7" style="fill:#007;stroke:black;"/>
   <text width="141" height="20" x="903" y="21" style="fill:#fff;" font-family="Arial" font-size="16px"> solicitudes_registro</text>
   <rect width="141" height="20" x="898" y="27" style="fill:#aea;stroke:black;"/>
   <text width="141" height="20" x="903" y="41" style="fill:black;" font-family="Arial" font-size="16px">id</text>
   <rect width="141" height="20" x="898" y="47" style="fill:none;stroke:black;"/>
   <text width="141" height="20" x="903" y="61" style="fill:black;" font-family="Arial" font-size="16px">nombre</text>
   <rect width="141" height="20" x="898" y="67" style="fill:none;stroke:black;"/>
   <text width="141" height="20" x="903" y="81" style="fill:black;" font-family="Arial" font-size="16px">apellido</text>
   <rect width="141" height="20" x="898" y="87" style="fill:none;stroke:black;"/>
   <text width="141" height="20" x="903" y="101" style="fill:black;" font-family="Arial" font-size="16px">email</text>
   <rect width="141" height="20" x="898" y="107" style="fill:none;stroke:black;"/>
   <text width="141" height="20" x="903" y="121" style="fill:black;" font-family="Arial" font-size="16px">password</text>
   <rect width="141" height="20" x="898" y="127" style="fill:none;stroke:black;"/>
   <text width="141" height="20" x="903" y="141" style="fill:black;" font-family="Arial" font-size="16px">rolDeseado</text>
   <rect width="141" height="20" x="898" y="147" style="fill:none;stroke:black;"/>
   <text width="141" height="20" x="903" y="161" style="fill:black;" font-family="Arial" font-size="16px">estado</text>
   <rect width="102" height="20" x="62" y="392" style="fill:#007;stroke:black;"/>
   <text width="102" height="20" x="67" y="406" style="fill:#fff;" font-family="Arial" font-size="16px"> tipo_usuarios</text>
   <rect width="102" height="20" x="62" y="412" style="fill:#aea;stroke:black;"/>
   <text width="102" height="20" x="67" y="426" style="fill:black;" font-family="Arial" font-size="16px">id</text>
   <rect width="102" height="20" x="62" y="432" style="fill:none;stroke:black;"/>
   <text width="102" height="20" x="67" y="446" style="fill:black;" font-family="Arial" font-size="16px">nombre_tipo</text>
   <rect width="111" height="20" x="49" y="508" style="fill:#007;stroke:black;"/>
   <text width="111" height="20" x="54" y="522" style="fill:#fff;" font-family="Arial" font-size="16px"> usuarios</text>
   <rect width="111" height="20" x="49" y="528" style="fill:#aea;stroke:black;"/>
   <text width="111" height="20" x="54" y="542" style="fill:black;" font-family="Arial" font-size="16px">id_usuario</text>
   <rect width="111" height="20" x="49" y="548" style="fill:none;stroke:black;"/>
   <text width="111" height="20" x="54" y="562" style="fill:black;" font-family="Arial" font-size="16px">dni</text>
   <rect width="111" height="20" x="49" y="568" style="fill:none;stroke:black;"/>
   <text width="111" height="20" x="54" y="582" style="fill:black;" font-family="Arial" font-size="16px">nombre</text>
   <rect width="111" height="20" x="49" y="588" style="fill:none;stroke:black;"/>
   <text width="111" height="20" x="54" y="602" style="fill:black;" font-family="Arial" font-size="16px">apellido</text>
   <rect width="111" height="20" x="49" y="608" style="fill:none;stroke:black;"/>
   <text width="111" height="20" x="54" y="622" style="fill:black;" font-family="Arial" font-size="16px">email</text>
   <rect width="111" height="20" x="49" y="628" style="fill:none;stroke:black;"/>
   <text width="111" height="20" x="54" y="642" style="fill:black;" font-family="Arial" font-size="16px">password</text>
   <rect width="111" height="20" x="49" y="648" style="fill:none;stroke:black;"/>
   <text width="111" height="20" x="54" y="662" style="fill:black;" font-family="Arial" font-size="16px">telefono</text>
   <rect width="111" height="20" x="49" y="668" style="fill:none;stroke:black;"/>
   <text width="111" height="20" x="54" y="682" style="fill:black;" font-family="Arial" font-size="16px">tipo_usuario_id</text>
   <rect width="111" height="20" x="49" y="688" style="fill:none;stroke:black;"/>
   <text width="111" height="20" x="54" y="702" style="fill:black;" font-family="Arial" font-size="16px">activo</text>
   <rect width="165" height="20" x="314" y="638" style="fill:#007;stroke:black;"/>
   <text width="165" height="20" x="319" y="652" style="fill:#fff;" font-family="Arial" font-size="16px"> usuarios_especialidad</text>
   <rect width="165" height="20" x="314" y="658" style="fill:#aea;stroke:black;"/>
   <text width="165" height="20" x="319" y="672" style="fill:black;" font-family="Arial" font-size="16px">id_usuario</text>
   <rect width="165" height="20" x="314" y="678" style="fill:#aea;stroke:black;"/>
   <text width="165" height="20" x="319" y="692" style="fill:black;" font-family="Arial" font-size="16px">id_especialidad</text>
   <rect width="165" height="20" x="314" y="698" style="fill:none;stroke:black;"/>
   <text width="165" height="20" x="319" y="712" style="fill:black;" font-family="Arial" font-size="16px">numeroMatricula</text>
</svg>
